HIERARCHY
ROOT Hips
{
	OFFSET	0.00	0.00	0.00
	CHANNELS 6 Xposition Yposition Zposition Zrotation Xrotation Yrotation
	JOINT Spine
	{
		OFFSET	 0.00	0.01	 0.00
		CHANNELS 3 Zrotation Xrotation Yrotation
		JOINT Spine1
		{
			OFFSET	 0.00	 2.45913012437421	 0.00
			CHANNELS 3 Zrotation Xrotation Yrotation
            JOINT Neck
            {
                OFFSET	 0.00	 2.48462964506057	 0.00
                CHANNELS 3 Zrotation Xrotation Yrotation
                JOINT Head
                {
                    OFFSET	 0.00	 0.927524780924562	 0.00
                    CHANNELS 3 Zrotation Xrotation Yrotation
                    End Site 
                    {
                        OFFSET	 0.00	 1.14999962169752	 0.00
                    }
                }
            }
			JOINT LeftShoulder
			{
				OFFSET	 0.00	 2.48462964506057	 0.00
				CHANNELS 3 Zrotation Xrotation Yrotation
				JOINT LeftUpArm
				{
					OFFSET	 0.00	 1.24881979654096	 0.00
					CHANNELS 3 Zrotation Xrotation Yrotation
					JOINT LeftForeArm
					{
						OFFSET	 0.00	2.59758046908119	 0.00
						CHANNELS 3 Zrotation Xrotation Yrotation
						JOINT LeftHand
						{
							OFFSET	 0.00	2.45542024364365	 0.00
							CHANNELS 3 Zrotation Xrotation Yrotation
							JOINT LeftHandThumb 
							{
								OFFSET	 0.00	0.00	 0.00
								CHANNELS 3 Zrotation Xrotation Yrotation
								End Site
								{
									OFFSET	 0.00	0.00	1.00000003353624
								}
							}
							JOINT L_Wrist_End 
							{
								OFFSET	 0.00	0.99999967115358	 0.00
								CHANNELS 3 Zrotation Xrotation Yrotation
								End Site 
								{
									OFFSET	 0.00	 0.00	 0.00
								}
							}
						}
					}
				}
			}
			JOINT RightShoulder
			{
				OFFSET	 0.00	 2.48462964506057	 0.00
				CHANNELS 3 Zrotation Xrotation Yrotation
				JOINT RightUpArm
				{
					OFFSET	 0.00	 1.24881979654096	 0.00
					CHANNELS 3 Zrotation Xrotation Yrotation
					JOINT RightForeArm
					{
						OFFSET	 0.00	2.59758046908119	 0.00
						CHANNELS 3 Zrotation Xrotation Yrotation
						JOINT RightHand
						{
							OFFSET	 0.00	2.45542024364365	 0.00
							CHANNELS 3 Zrotation Xrotation Yrotation
							JOINT RightHandThumb 
							{
								OFFSET	 0.00	0.00	 0.00
								CHANNELS 3 Zrotation Xrotation Yrotation
								End Site
								{
									OFFSET	 0.00	0.00	1.00000003353624
								}
							}
							JOINT R_Wrist_End 
							{
								OFFSET	 0.00	0.99999967115358	 0.00
								CHANNELS 3 Zrotation Xrotation Yrotation
								End Site 
								{
									OFFSET	 0.00	 0.00	 0.00
								}
							}
						}
					}
				}
			}
		}
	}
	JOINT LeftUpLeg
	{
		OFFSET	 1.2719394002717	 0.00	 0.00
		CHANNELS 3 Zrotation Xrotation Yrotation
		JOINT LeftLowLeg
		{
			OFFSET	 0.00	-4.3429100912261	 0.00
			CHANNELS 3 Zrotation Xrotation Yrotation
			JOINT LeftFoot
			{
				OFFSET	 0.00	-4.48767017425826	 0.00
				CHANNELS 3 Zrotation Xrotation Yrotation
				JOINT LeftToeBase
                {
                    OFFSET	 0.00	0.00	 1.51507020887566
                    CHANNELS 3 Zrotation Xrotation Yrotation
                    End Site 
                    {
                        OFFSET	 0.00	0.00	 0.75000010571191
                    }
                }
			}
		}
	}
	JOINT RightUpLeg
	{
		OFFSET	 -1.2719393604653	 0.00	 0.00
		CHANNELS 3 Zrotation Xrotation Yrotation
		JOINT RightLowLeg
		{
			OFFSET	 0.00	-4.3429100912261	 0.00
			CHANNELS 3 Zrotation Xrotation Yrotation
			JOINT RightFoot
			{
				OFFSET	 0.00	-4.48767017425826	 0.00
				CHANNELS 3 Zrotation Xrotation Yrotation
				JOINT RightToeBase
                {
                    OFFSET	 0.00	0.00	 1.51507020887566
                    CHANNELS 3 Zrotation Xrotation Yrotation
                    End Site 
                    {
                        OFFSET	 0.00	0.00	 0.749999965609858
                    }
                }   
			}
		}
	}
}
MOTION 
Frames:	6 
Frame Time: 0.02 
 0.31824499130249023 5.7950897216796875 9.342589721679687 -137.138 84.5288 856.884 2.62916 -5.35756 0.360632 4.98928 -11.9571 0.886857 -15.1646 65.7836 724.871 91.9354 -82.6347 78.9851 -114.5054 -8.07097 -8.73475 11.5315 14.4129 -25.6698 0.0 5.0284 0.0 29.5193 -9.8384 29.7056 0.0 0.0 0.0 0.0 0.0 0.0 112.1485 -4.85809 -0.217425 -8.42426 4.55275 53.6764 0.0 16.6414 0.0 -25.4779 -13.6236 -47.4053 0.0 0.0 0.0 0.0 0.0 0.0 1.48397 -2.97391 0.542125 0.0 8.29475 0.0 -12.6078 0.55160046 7.87623 0.0 -29.1366 0.0 7.69279 -2.76334 6.29055 0.0 9.69899 0.0 10.3717 5.5743904 -16.4859 0.0 -32.5066 0.0 
  0.31597700119018557 5.7947998046875 9.342249755859376 -137.432 84.525 857.188 2.61 -5.39183 0.329103 4.94116 -11.9686 0.858954 -15.5894 65.8888 725.344 91.3873 -82.6663 78.5476 -114.4793 -8.06715 -8.76872 11.579 14.4545 -25.7104 0.0 5.03242 0.0 29.4483 -9.55481 29.7159 0.0 0.0 0.0 0.0 0.0 0.0 112.1697 -4.75587 -0.294218 -8.37054 4.61222 53.5015 0.0 16.6776 0.0 -25.524 -13.9565 -47.5158 0.0 0.0 0.0 0.0 0.0 0.0 1.47494 -3.03055 0.466363 0.0 8.3638 0.0 -12.6271 0.51939964 7.92566 0.0 -29.1334 0.0 7.68594 -2.80741 6.22306 0.0 9.74255 0.0 10.3614 5.55925 -16.4276 0.0 -32.542603 0.0 
  0.31387699127197266 5.792570190429688 9.34197998046875 -137.287 84.5409 857.025 2.57982 -5.42159 0.321659 4.93558 -11.9336 0.853722 -15.8061 65.9413 725.629 90.6447 -82.6412 77.8659 -114.4315 -8.05957 -8.80754 11.6188 14.4725 -25.67 0.0 5.1154 0.0 29.0029 -9.54027 29.7296 0.0 0.0 0.0 0.0 0.0 0.0 112.1823 -4.71647 -0.285356 -8.34083 4.73835 53.3265 0.0 16.6439 0.0 -25.5666 -14.2163 -47.4701 0.0 0.0 0.0 0.0 0.0 0.0 1.48542 -2.99979 0.467054 0.0 8.38051 0.0 -12.6821 0.47539997 7.93405 0.0 -29.1053 0.0 7.70337 -2.80137 6.30017 0.0 9.80063 0.0 10.3794 5.5211897 -16.4577 0.0 -32.5443 0.0 
  0.3106730079650879 5.789409790039063 9.34197998046875 -137.287 84.5451 856.993 2.4848 -5.49124 0.32272 5.01404 -11.8635 0.862448 -15.9154 65.9786 725.806 90.1326 -82.5908 77.3712 -114.4011 -8.03068 -8.85843 11.6701 14.4844 -25.5344 0.0 5.16063 0.0 28.4711 -9.64175 29.4417 0.0 0.0 0.0 0.0 0.0 0.0 112.1969 -4.68794 -0.29829 -8.34909 4.81011 53.1429 0.0 16.6256 0.0 -25.4611 -14.4235 -47.504 0.0 0.0 0.0 0.0 0.0 0.0 1.50415 -2.96646 0.522431 0.0 8.36651 0.0 -12.6343 0.49170017 7.92425 0.0 -29.1467 0.0 7.72209 -2.7838 6.31743 0.0 9.80629 0.0 10.3445 5.52874 -16.4597 0.0 -32.5605 0.0 
  0.3088479995727539 5.788870239257813 9.342000122070312 -137.433 84.5389 857.162 2.39129 -5.5056 0.30601 5.09857 -11.8719 0.857071 -15.9289 65.9969 725.873 89.7207 -82.5358 76.9656 -114.4322 -7.97269 -8.85118 11.7759 14.5322 -25.77 0.0 5.04668 0.0 28.3453 -9.52431 29.7119 0.0 0.0 0.0 0.0 0.0 0.0 112.205795 -4.71276 -0.371539 -8.38645 4.89718 53.1716 0.0 16.6056 0.0 -25.4577 -14.6032 -47.5158 0.0 0.0 0.0 0.0 0.0 0.0 1.51555 -3.00818 0.666644 0.0 8.41612 0.0 -12.6405 0.5003004 7.78831 0.0 -29.1236 0.0 7.72022 -2.81985 6.16957 0.0 9.85099 0.0 10.3141 5.5351896 -16.3496 0.0 -32.5863 0.0 
  0.3065570068359375 5.788309936523437 9.342000122070312 -137.544 84.5313 857.282 2.26642 -5.49624 0.298347 5.22362 -11.9087 0.866297 -15.9629 65.9762 726.005 89.0652 -82.4605 76.2233 -114.4086 -7.91033 -8.79857 11.8542 14.5026 -25.4731 0.0 5.06565 0.0 28.0723 -9.77374 29.7793 0.0 0.0 0.0 0.0 0.0 0.0 112.1939 -4.73885 -0.418192 -8.36904 4.96343 53.2327 0.0 16.712 0.0 -25.4526 -14.8694 -47.6982 0.0 0.0 0.0 0.0 0.0 0.0 1.52134 -3.00924 0.614372 0.0 8.39923 0.0 -12.6777 0.49139977 7.82945 0.0 -29.1405 0.0 7.72899 -2.83554 6.11042 0.0 9.86332 0.0 10.2825 5.5459003 -16.3065 0.0 -32.5896 0.0 
